  0
SECTION
  2
HEADER
  9
$ACADVER
  1
AC1009
  9
$EXTMAX
 10
218.284912109375
 20
122.709571838379
 30
0.0
  9
$EXTMIN
 10
10.3945198059082
 20
7.0605187416077
 30
0.0
  9
$INSUNITS
 70
     4
  9
$LUNITS
 70
     2
  9
$LUPREC
 70
     4
  9
$MEASUREMENT
 70
     1
  0
ENDSEC
  0
SECTION
  2
TABLES
  0
TABLE
  2
LAYER
 70
     1
  0
LAYER
  2
0
 70
     0
 62
     7
  6
Continuous
  0
LAYER
  2
1
 70
     0
 62
     7
  6
Continuous
  0
ENDTAB
  0
TABLE
  2
APPID
 70
     1
  0
APPID
  2
ACAD
 70
     0
  0
ENDTAB
  0
ENDSEC
  0
SECTION
  2
ENTITIES
  0
LINE
  8
0
 10
66.687880333612
 20
122.709571184593
 30
0.0
 11
10.394519698431
 21
50.6426966202719
 31
0.0
  0
LINE
  8
0
 10
10.394519698431
 20
50.6426966202719
 30
0.0
 11
122.48744027499
 21
50.6426966202719
 31
0.0
  0
LINE
  8
0
 10
122.48744027499
 20
50.6426966202719
 30
0.0
 11
66.687880333612
 21
122.709571184593
 31
0.0
  0
CIRCLE
  8
0
 10
66.5925524340329
 20
78.0557413925424
 30
0.0
 40
27.4130447722705
  0
ARC
  8
0
 10
66.4409799867106
 20
64.882870561583
 30
0.0
 40
57.8272277108673
 50
194.25594087623
 51
449.755367992231
  0
LINE
  8
0
 10
158.041140541732
 20
50.6426966202719
 30
0.0
 11
218.284913667051
 21
50.6426966202719
 31
0.0
  0
LINE
  8
0
 10
218.284913667051
 20
50.6426966202719
 30
0.0
 11
218.284913667051
 21
117.279875200643
 31
0.0
  0
LINE
  8
0
 10
218.284913667051
 20
117.279875200643
 30
0.0
 11
138.782885724559
 21
117.279875200643
 31
0.0
  0
LINE
  8
0
 10
138.782885724559
 20
117.279875200643
 30
0.0
 11
138.782885724559
 21
90.6250042052179
 31
0.0
  0
LINE
  8
0
 10
138.782885724559
 20
90.6250042052179
 30
0.0
 11
195.07624635974
 21
90.6250042052179
 31
0.0
  0
LINE
  8
0
 10
195.07624635974
 20
90.6250042052179
 30
0.0
 11
195.07624635974
 21
71.3742637992314
 31
0.0
  0
LINE
  8
0
 10
195.07624635974
 20
71.3742637992314
 30
0.0
 11
158.041140541732
 21
71.3742637992314
 31
0.0
  0
LINE
  8
0
 10
158.041140541732
 20
71.3742637992314
 30
0.0
 11
158.041140541732
 21
50.6426966202719
 31
0.0
  0
LINE
  8
1
 10
138.050611864214
 20
42.6984819154098
 30
0.0
 11
197.128723626801
 21
42.6984819154098
 31
0.0
  0
LINE
  8
1
 10
197.128723626801
 20
42.6984819154098
 30
0.0
 11
197.128723626801
 21
9.6525859458561
 31
0.0
  0
LINE
  8
1
 10
197.128723626801
 20
9.6525859458561
 30
0.0
 11
138.050611864214
 21
9.6525859458561
 31
0.0
  0
LINE
  8
1
 10
138.050611864214
 20
9.6525859458561
 30
0.0
 11
138.050611864214
 21
42.6984819154098
 31
0.0
  0
POLYLINE
  8
1
 66
     1
 10
0.0
 20
0.0
 30
0.0
 70
     1
  0
VERTEX
  8
1
 10
150.677002694058
 20
25.3809441821836
 42
0.0
  0
VERTEX
  8
1
 10
150.70187784546
 20
24.8488010542639
 42
0.0
  0
VERTEX
  8
1
 10
150.776435118603
 20
24.318116493669
 42
0.0
  0
VERTEX
  8
1
 10
150.900470157186
 20
23.7903450698921
 42
0.0
  0
VERTEX
  8
1
 10
151.073642989789
 20
23.2669333677207
 42
0.0
  0
VERTEX
  8
1
 10
151.295478961714
 20
22.7493160222488
 42
0.0
  0
VERTEX
  8
1
 10
151.565370035982
 20
22.2389117866409
 42
0.0
  0
VERTEX
  8
1
 10
151.882576459919
 20
21.7371196434293
 42
0.0
  0
VERTEX
  8
1
 10
152.246228792766
 20
21.2453149699992
 42
0.0
  0
VERTEX
  8
1
 10
152.655330288754
 20
20.7648457687757
 42
0.0
  0
VERTEX
  8
1
 10
153.108759629121
 20
20.2970289724423
 42
0.0
  0
VERTEX
  8
1
 10
153.605273995561
 20
19.8431468343201
 42
0.0
  0
VERTEX
  8
1
 10
154.143512476708
 20
19.4044434138009
 42
0.0
  0
VERTEX
  8
1
 10
154.721999798299
 20
18.9821211664663
 42
0.0
  0
VERTEX
  8
1
 10
155.339150366794
 20
18.5773376482411
 42
0.0
  0
VERTEX
  8
1
 10
155.993272615383
 20
18.1912023426126
 42
0.0
  0
VERTEX
  8
1
 10
156.682573640451
 20
17.8247736196134
 42
0.0
  0
VERTEX
  8
1
 10
157.4051641158
 20
17.4790558349033
 42
0.0
  0
VERTEX
  8
1
 10
158.159063471163
 20
17.1549965768996
 42
0.0
  0
VERTEX
  8
1
 10
158.942205320812
 20
16.8534840695033
 42
0.0
  0
VERTEX
  8
1
 10
159.752443127371
 20
16.5753447375394
 42
0.0
  0
VERTEX
  8
1
 10
160.587556085331
 20
16.3213409415836
 42
0.0
  0
VERTEX
  8
1
 10
161.445255208123
 20
16.0921688883849
 42
0.0
  0
VERTEX
  8
1
 10
162.32318960207
 20
15.8884567226117
 42
0.0
  0
VERTEX
  8
1
 10
163.218952910021
 20
15.7107628051505
 42
0.0
  0
VERTEX
  8
1
 10
164.130089907014
 20
15.5595741826777
 42
0.0
  0
VERTEX
  8
1
 10
165.054103229872
 20
15.4353052526984
 42
0.0
  0
VERTEX
  8
1
 10
165.988460222304
 20
15.338296627712
 42
0.0
  0
VERTEX
  8
1
 10
166.930599876741
 20
15.2688142016165
 42
0.0
  0
VERTEX
  8
1
 10
167.877939853877
 20
15.2270484209122
 42
0.0
  0
VERTEX
  8
1
 10
168.827883560683
 20
15.2131137627009
 42
0.0
  0
VERTEX
  8
1
 10
169.77782726749
 20
15.2270484209122
 42
0.0
  0
VERTEX
  8
1
 10
170.725167244626
 20
15.2688142016165
 42
0.0
  0
VERTEX
  8
1
 10
171.667306899063
 20
15.338296627712
 42
0.0
  0
VERTEX
  8
1
 10
172.601663891495
 20
15.4353052526984
 42
0.0
  0
VERTEX
  8
1
 10
173.525677214353
 20
15.5595741826777
 42
0.0
  0
VERTEX
  8
1
 10
174.436814211346
 20
15.7107628051505
 42
0.0
  0
VERTEX
  8
1
 10
175.332577519297
 20
15.8884567226117
 42
0.0
  0
VERTEX
  8
1
 10
176.210511913243
 20
16.0921688883849
 42
0.0
  0
VERTEX
  8
1
 10
177.068211036036
 20
16.3213409415836
 42
0.0
  0
VERTEX
  8
1
 10
177.903323993996
 20
16.5753447375394
 42
0.0
  0
VERTEX
  8
1
 10
178.713561800555
 20
16.8534840695033
 42
0.0
  0
VERTEX
  8
1
 10
179.496703650203
 20
17.1549965768996
 42
0.0
  0
VERTEX
  8
1
 10
180.250603005567
 20
17.4790558349033
 42
0.0
  0
VERTEX
  8
1
 10
180.973193480916
 20
17.8247736196134
 42
0.0
  0
VERTEX
  8
1
 10
181.662494505983
 20
18.1912023426125
 42
0.0
  0
VERTEX
  8
1
 10
182.316616754573
 20
18.5773376482411
 42
0.0
  0
VERTEX
  8
1
 10
182.933767323068
 20
18.9821211664663
 42
0.0
  0
VERTEX
  8
1
 10
183.512254644658
 20
19.4044434138009
 42
0.0
  0
VERTEX
  8
1
 10
184.050493125806
 20
19.8431468343201
 42
0.0
  0
VERTEX
  8
1
 10
184.547007492246
 20
20.2970289724423
 42
0.0
  0
VERTEX
  8
1
 10
185.000436832612
 20
20.7648457687757
 42
0.0
  0
VERTEX
  8
1
 10
185.409538328601
 20
21.2453149699992
 42
0.0
  0
VERTEX
  8
1
 10
185.773190661447
 20
21.7371196434293
 42
0.0
  0
VERTEX
  8
1
 10
186.090397085384
 20
22.2389117866409
 42
0.0
  0
VERTEX
  8
1
 10
186.360288159653
 20
22.7493160222487
 42
0.0
  0
VERTEX
  8
1
 10
186.582124131578
 20
23.2669333677207
 42
0.0
  0
VERTEX
  8
1
 10
186.755296964181
 20
23.7903450698921
 42
0.0
  0
VERTEX
  8
1
 10
186.879332002763
 20
24.318116493669
 42
0.0
  0
VERTEX
  8
1
 10
186.953889275907
 20
24.8488010542639
 42
0.0
  0
VERTEX
  8
1
 10
186.978764427309
 20
25.3809441821836
 42
0.0
  0
VERTEX
  8
1
 10
186.953889275907
 20
25.9130873101033
 42
0.0
  0
VERTEX
  8
1
 10
186.879332002763
 20
26.4437718706982
 42
0.0
  0
VERTEX
  8
1
 10
186.755296964181
 20
26.9715432944752
 42
0.0
  0
VERTEX
  8
1
 10
186.582124131578
 20
27.4949549966465
 42
0.0
  0
VERTEX
  8
1
 10
186.360288159653
 20
28.0125723421185
 42
0.0
  0
VERTEX
  8
1
 10
186.090397085384
 20
28.5229765777263
 42
0.0
  0
VERTEX
  8
1
 10
185.773190661447
 20
29.024768720938
 42
0.0
  0
VERTEX
  8
1
 10
185.409538328601
 20
29.516573394368
 42
0.0
  0
VERTEX
  8
1
 10
185.000436832612
 20
29.9970425955915
 42
0.0
  0
VERTEX
  8
1
 10
184.547007492246
 20
30.464859391925
 42
0.0
  0
VERTEX
  8
1
 10
184.050493125806
 20
30.9187415300471
 42
0.0
  0
VERTEX
  8
1
 10
183.512254644658
 20
31.3574449505663
 42
0.0
  0
VERTEX
  8
1
 10
182.933767323068
 20
31.7797671979009
 42
0.0
  0
VERTEX
  8
1
 10
182.316616754573
 20
32.1845507161261
 42
0.0
  0
VERTEX
  8
1
 10
181.662494505983
 20
32.5706860217547
 42
0.0
  0
VERTEX
  8
1
 10
180.973193480916
 20
32.9371147447538
 42
0.0
  0
VERTEX
  8
1
 10
180.250603005567
 20
33.2828325294639
 42
0.0
  0
VERTEX
  8
1
 10
179.496703650203
 20
33.6068917874677
 42
0.0
  0
VERTEX
  8
1
 10
178.713561800555
 20
33.9084042948639
 42
0.0
  0
VERTEX
  8
1
 10
177.903323993996
 20
34.1865436268278
 42
0.0
  0
VERTEX
  8
1
 10
177.068211036036
 20
34.4405474227837
 42
0.0
  0
VERTEX
  8
1
 10
176.210511913243
 20
34.6697194759823
 42
0.0
  0
VERTEX
  8
1
 10
175.332577519297
 20
34.8734316417555
 42
0.0
  0
VERTEX
  8
1
 10
174.436814211346
 20
35.0511255592168
 42
0.0
  0
VERTEX
  8
1
 10
173.525677214353
 20
35.2023141816896
 42
0.0
  0
VERTEX
  8
1
 10
172.601663891495
 20
35.3265831116689
 42
0.0
  0
VERTEX
  8
1
 10
171.667306899063
 20
35.4235917366553
 42
0.0
  0
VERTEX
  8
1
 10
170.725167244626
 20
35.4930741627508
 42
0.0
  0
VERTEX
  8
1
 10
169.77782726749
 20
35.5348399434551
 42
0.0
  0
VERTEX
  8
1
 10
168.827883560683
 20
35.5487746016664
 42
0.0
  0
VERTEX
  8
1
 10
167.877939853877
 20
35.5348399434551
 42
0.0
  0
VERTEX
  8
1
 10
166.930599876741
 20
35.4930741627508
 42
0.0
  0
VERTEX
  8
1
 10
165.988460222304
 20
35.4235917366553
 42
0.0
  0
VERTEX
  8
1
 10
165.054103229872
 20
35.3265831116689
 42
0.0
  0
VERTEX
  8
1
 10
164.130089907014
 20
35.2023141816896
 42
0.0
  0
VERTEX
  8
1
 10
163.218952910021
 20
35.0511255592168
 42
0.0
  0
VERTEX
  8
1
 10
162.32318960207
 20
34.8734316417555
 42
0.0
  0
VERTEX
  8
1
 10
161.445255208123
 20
34.6697194759823
 42
0.0
  0
VERTEX
  8
1
 10
160.587556085331
 20
34.4405474227837
 42
0.0
  0
VERTEX
  8
1
 10
159.752443127371
 20
34.1865436268279
 42
0.0
  0
VERTEX
  8
1
 10
158.942205320812
 20
33.908404294864
 42
0.0
  0
VERTEX
  8
1
 10
158.159063471163
 20
33.6068917874677
 42
0.0
  0
VERTEX
  8
1
 10
157.4051641158
 20
33.282832529464
 42
0.0
  0
VERTEX
  8
1
 10
156.682573640451
 20
32.9371147447538
 42
0.0
  0
VERTEX
  8
1
 10
155.993272615383
 20
32.5706860217547
 42
0.0
  0
VERTEX
  8
1
 10
155.339150366794
 20
32.1845507161261
 42
0.0
  0
VERTEX
  8
1
 10
154.721999798299
 20
31.7797671979009
 42
0.0
  0
VERTEX
  8
1
 10
154.143512476708
 20
31.3574449505663
 42
0.0
  0
VERTEX
  8
1
 10
153.605273995561
 20
30.9187415300471
 42
0.0
  0
VERTEX
  8
1
 10
153.108759629121
 20
30.464859391925
 42
0.0
  0
VERTEX
  8
1
 10
152.655330288754
 20
29.9970425955915
 42
0.0
  0
VERTEX
  8
1
 10
152.246228792766
 20
29.516573394368
 42
0.0
  0
VERTEX
  8
1
 10
151.882576459919
 20
29.0247687209379
 42
0.0
  0
VERTEX
  8
1
 10
151.565370035982
 20
28.5229765777263
 42
0.0
  0
VERTEX
  8
1
 10
151.295478961714
 20
28.0125723421185
 42
0.0
  0
VERTEX
  8
1
 10
151.073642989789
 20
27.4949549966465
 42
0.0
  0
VERTEX
  8
1
 10
150.900470157186
 20
26.9715432944751
 42
0.0
  0
VERTEX
  8
1
 10
150.776435118603
 20
26.4437718706982
 42
0.0
  0
VERTEX
  8
1
 10
150.70187784546
 20
25.9130873101033
 42
0.0
  0
SEQEND
  0
ENDSEC
  0
EOF
